<svg width="168" height="56" viewBox="0 0 168 56" fill="none" xmlns="http://www.w3.org/2000/svg">
<g clip-path="url(#clip0_740_4425)">
<path d="M154.189 0.000182H13.3486C12.8352 0.000182 12.328 0.000182 11.8159 0.002982C11.3873 0.005782 10.9621 0.013916 10.5294 0.020762C9.58932 0.0318245 8.65145 0.114529 7.72394 0.268156C6.79773 0.425128 5.90054 0.721064 5.06271 1.14596C4.2259 1.57444 3.46128 2.13122 2.7966 2.79608C2.12842 3.45907 1.57145 4.22541 1.14709 5.06561C0.72156 5.90414 0.426497 6.8027 0.27209 7.73026C0.116215 8.65664 0.0323377 9.59371 0.02121 10.5331C0.008218 10.9623 0.006846 11.393 0 11.8223V44.1822C0.006846 44.6169 0.008218 45.038 0.02121 45.4729C0.0323411 46.4122 0.116219 47.3492 0.27209 48.2755C0.42607 49.2036 0.721151 50.1027 1.14709 50.9416C1.57126 51.779 2.12831 52.5423 2.7966 53.2016C3.45876 53.8694 4.22387 54.4266 5.06271 54.8518C5.90054 55.2778 6.79763 55.5755 7.72394 55.7349C8.65161 55.8873 9.58938 55.97 10.5294 55.9824C10.9621 55.9919 11.3873 55.9974 11.8159 55.9974C12.3279 56.0002 12.8352 56.0002 13.3486 56.0002H154.189C154.692 56.0002 155.203 56.0002 155.706 55.9974C156.133 55.9974 156.57 55.9919 156.997 55.9824C157.935 55.9707 158.871 55.8879 159.797 55.7349C160.726 55.5744 161.627 55.2767 162.468 54.8518C163.306 54.4263 164.071 53.8692 164.732 53.2016C165.399 52.5397 165.957 51.777 166.387 50.9416C166.809 50.1021 167.102 49.2031 167.253 48.2755C167.41 47.3491 167.496 46.4123 167.513 45.4729C167.519 45.038 167.519 44.6169 167.519 44.1822C167.53 43.6736 167.53 43.1678 167.53 42.6509V13.3508C167.53 12.8381 167.53 12.3295 167.519 11.8223C167.519 11.393 167.519 10.9623 167.513 10.533C167.496 9.59357 167.41 8.65671 167.253 7.7302C167.101 6.80318 166.809 5.90469 166.387 5.06555C165.523 3.38146 164.152 2.01062 162.468 1.14583C161.627 0.721976 160.726 0.426119 159.797 0.26803C158.871 0.113726 157.935 0.0309929 156.997 0.020566C156.57 0.013734 156.133 0.00553 155.706 0.0028C155.203 0 154.692 0.000182 154.189 0.000182Z" fill="#A6A6A6"/>
<path d="M11.8227 54.7746C11.3962 54.7746 10.9799 54.7691 10.5567 54.7596C9.68 54.7482 8.80535 54.6719 7.93991 54.5313C7.13294 54.3923 6.3512 54.1338 5.62048 53.7642C4.89646 53.3977 4.23609 52.9172 3.66468 52.341C3.08499 51.7716 2.60238 51.1111 2.23596 50.3859C1.86551 49.6559 1.60913 48.8735 1.47576 48.0658C1.33174 47.198 1.25381 46.3204 1.24266 45.4408C1.23379 45.1455 1.22217 44.1625 1.22217 44.1625V11.8217C1.22217 11.8217 1.23454 10.8537 1.24273 10.5693C1.25341 9.69108 1.33088 8.81492 1.47448 7.94843C1.60809 7.13856 1.86467 6.35386 2.23532 5.62149C2.60039 4.89673 3.08032 4.23581 3.65652 3.66436C4.23206 3.08748 4.89454 2.60446 5.61979 2.2329C6.34883 1.86454 7.1291 1.60783 7.93444 1.47139C8.80272 1.32938 9.68041 1.2526 10.5602 1.2417L11.8234 1.22461H155.699L156.978 1.24239C157.849 1.25275 158.719 1.32884 159.579 1.47002C160.393 1.60817 161.181 1.86667 161.919 2.23701C163.372 2.98579 164.554 4.17044 165.3 5.62491C165.664 6.35222 165.917 7.13052 166.049 7.93339C166.194 8.807 166.276 9.69004 166.292 10.5755C166.296 10.972 166.296 11.3978 166.296 11.8217C166.307 12.3467 166.307 12.8464 166.307 13.3502V42.6503C166.307 43.1589 166.307 43.6553 166.296 44.1556C166.296 44.6109 166.296 45.028 166.291 45.4572C166.275 46.3268 166.195 47.1941 166.052 48.0521C165.921 48.8656 165.666 49.6541 165.296 50.3901C164.927 51.1075 164.447 51.7622 163.874 52.3301C163.302 52.9094 162.64 53.3927 161.915 53.7616C161.179 54.134 160.392 54.3934 159.579 54.5313C158.714 54.6726 157.839 54.749 156.963 54.7596C156.553 54.7691 156.123 54.7746 155.706 54.7746L154.189 54.7774L11.8227 54.7746Z" fill="black"/>
<path d="M34.6762 28.4203C34.6913 27.2517 35.0016 26.106 35.5785 25.0897C36.1553 24.0733 36.9799 23.2194 37.9754 22.6074C37.343 21.7042 36.5086 20.9608 35.5387 20.4365C34.5687 19.9121 33.4898 19.6211 32.3878 19.5866C30.0368 19.3399 27.7577 20.9934 26.5597 20.9934C25.3385 20.9934 23.494 19.6111 21.5078 19.652C20.2231 19.6935 18.971 20.0671 17.8735 20.7364C16.7761 21.4057 15.8708 22.3478 15.2457 23.471C12.5381 28.1588 14.5577 35.0483 17.1514 38.8375C18.449 40.693 19.9656 42.7656 21.9501 42.6921C23.892 42.6116 24.6172 41.4539 26.9612 41.4539C29.2835 41.4539 29.9639 42.6921 31.9886 42.6454C34.0724 42.6116 35.3852 40.7817 36.6373 38.9086C37.5697 37.5865 38.2872 36.1253 38.7631 34.5791C37.5525 34.0671 36.5195 33.21 35.7927 32.1148C35.0659 31.0196 34.6776 29.7347 34.6762 28.4203Z" fill="white"/>
<path d="M30.8518 17.0949C31.988 15.731 32.5477 13.9779 32.4121 12.208C30.6764 12.3903 29.073 13.2199 27.9215 14.5315C27.3585 15.1722 26.9273 15.9176 26.6526 16.7251C26.3779 17.5326 26.265 18.3863 26.3203 19.2374C27.1885 19.2463 28.0474 19.0582 28.8324 18.687C29.6173 18.3159 30.3078 17.7715 30.8518 17.0949Z" fill="white"/>
<path d="M59.2228 37.9957H52.596L51.0046 42.6948H48.1978L54.4745 25.3096H57.3907L63.6675 42.6948H60.8128L59.2228 37.9957ZM53.2823 35.8274H58.5351L55.9457 28.2012H55.8732L53.2823 35.8274Z" fill="white"/>
<path d="M77.2234 36.358C77.2234 40.2969 75.1152 42.8275 71.9337 42.8275C71.1278 42.8697 70.3263 42.6841 69.621 42.2919C68.9157 41.8997 68.3351 41.3168 67.9457 40.6099H67.8854V46.8881H65.2837V30.0197H67.8021V32.1279H67.8499C68.2573 31.4245 68.8477 30.8446 69.5584 30.45C70.2691 30.0554 71.0734 29.8609 71.8859 29.8871C75.1028 29.8871 77.2234 32.4301 77.2234 36.358ZM74.5492 36.358C74.5492 33.7918 73.223 32.1047 71.1995 32.1047C69.2117 32.1047 67.8745 33.8273 67.8745 36.358C67.8745 38.9119 69.2117 40.6223 71.1995 40.6223C73.223 40.6223 74.5492 38.9475 74.5492 36.358Z" fill="white"/>
<path d="M91.1741 36.358C91.1741 40.2969 89.0659 42.8275 85.8844 42.8275C85.0785 42.8697 84.277 42.684 83.5717 42.2918C82.8664 41.8997 82.2858 41.3168 81.8963 40.6099H81.8361V46.8881H79.2344V30.0197H81.7527V32.1279H81.8006C82.2079 31.4245 82.7983 30.8446 83.509 30.45C84.2197 30.0554 85.0241 29.8609 85.8365 29.8871C89.0536 29.8871 91.1741 32.4301 91.1741 36.358ZM88.4998 36.358C88.4998 33.7918 87.1737 32.1047 85.1502 32.1047C83.1623 32.1047 81.8252 33.8273 81.8252 36.358C81.8252 38.9119 83.1623 40.6223 85.1502 40.6223C87.1737 40.6223 88.4998 38.9475 88.4998 36.358Z" fill="white"/>
<path d="M100.394 37.8507C100.587 39.5747 102.262 40.7067 104.551 40.7067C106.744 40.7067 108.321 39.5746 108.321 38.0201C108.321 36.6707 107.37 35.8627 105.117 35.309L102.863 34.7662C99.6711 33.9951 98.189 32.5022 98.189 30.0795C98.189 27.0799 100.803 25.0195 104.515 25.0195C108.189 25.0195 110.707 27.0799 110.792 30.0795H108.165C108.008 28.3445 106.574 27.2973 104.478 27.2973C102.382 27.2973 100.948 28.3569 100.948 29.899C100.948 31.1281 101.864 31.8514 104.105 32.405L106.02 32.8754C109.587 33.7189 111.069 35.1518 111.069 37.6947C111.069 40.9472 108.478 42.9843 104.358 42.9843C100.502 42.9843 97.8991 40.9951 97.731 37.8505L100.394 37.8507Z" fill="white"/>
<path d="M116.684 27.0195V30.0191H119.094V32.0795H116.684V39.0672C116.684 40.1527 117.167 40.6586 118.226 40.6586C118.512 40.6536 118.798 40.6335 119.082 40.5984V42.6464C118.606 42.7355 118.122 42.7758 117.637 42.7668C115.071 42.7668 114.07 41.8029 114.07 39.3447V32.0795H112.227V30.0191H114.07V27.0195H116.684Z" fill="white"/>
<path d="M120.491 36.3574C120.491 32.3693 122.84 29.8633 126.502 29.8633C130.177 29.8633 132.515 32.3693 132.515 36.3574C132.515 40.3564 130.19 42.8516 126.502 42.8516C122.816 42.8516 120.491 40.3564 120.491 36.3574ZM129.864 36.3574C129.864 33.6217 128.61 32.007 126.502 32.007C124.394 32.007 123.142 33.634 123.142 36.3574C123.142 39.1041 124.394 40.7064 126.502 40.7064C128.61 40.7064 129.864 39.1041 129.864 36.3574Z" fill="white"/>
<path d="M134.66 30.0196H137.142V32.177H137.202C137.37 31.5032 137.764 30.9077 138.32 30.4907C138.875 30.0737 139.557 29.8605 140.251 29.887C140.55 29.8859 140.849 29.9185 141.142 29.984V32.4176C140.764 32.302 140.369 32.2489 139.973 32.2604C139.595 32.2451 139.218 32.3117 138.868 32.4558C138.519 32.5998 138.204 32.8178 137.947 33.0949C137.689 33.3719 137.495 33.7014 137.376 34.0608C137.258 34.4201 137.219 34.8008 137.262 35.1766V42.6948H134.66L134.66 30.0196Z" fill="white"/>
<path d="M153.137 38.9715C152.787 41.2725 150.547 42.8516 147.68 42.8516C143.992 42.8516 141.704 40.381 141.704 36.4176C141.704 32.4418 144.005 29.8633 147.57 29.8633C151.077 29.8633 153.282 32.2723 153.282 36.1154V37.0068H144.33V37.1641C144.289 37.6305 144.347 38.1005 144.501 38.5426C144.656 38.9848 144.902 39.3891 145.225 39.7287C145.547 40.0683 145.938 40.3353 146.372 40.5121C146.805 40.689 147.272 40.7715 147.74 40.7543C148.355 40.8119 148.972 40.6695 149.499 40.3483C150.026 40.0271 150.436 39.5442 150.667 38.9715L153.137 38.9715ZM144.342 35.1885H150.679C150.703 34.769 150.639 34.3493 150.492 33.9556C150.346 33.5619 150.12 33.2028 149.828 32.9007C149.536 32.5986 149.184 32.3602 148.796 32.2002C148.408 32.0403 147.99 31.9625 147.57 31.9715C147.147 31.969 146.727 32.0504 146.334 32.211C145.942 32.3716 145.586 32.6083 145.286 32.9074C144.986 33.2065 144.748 33.5621 144.586 33.9536C144.424 34.3451 144.341 34.7648 144.342 35.1885Z" fill="white"/>
<path d="M52.9568 12.2233C53.5023 12.1842 54.0496 12.2666 54.5594 12.4646C55.0692 12.6626 55.5286 12.9713 55.9046 13.3684C56.2806 13.7654 56.5639 14.241 56.7338 14.7608C56.9038 15.2806 56.9563 15.8316 56.8875 16.3741C56.8875 19.0429 55.4451 20.5769 52.9568 20.5769H49.9395V12.2233H52.9568ZM51.2369 19.3955H52.8119C53.2017 19.4188 53.5917 19.3549 53.9537 19.2085C54.3156 19.062 54.6404 18.8367 54.9043 18.5489C55.1682 18.2611 55.3646 17.9181 55.4792 17.5448C55.5938 17.1716 55.6237 16.7774 55.5668 16.3911C55.6196 16.0064 55.5866 15.6147 55.4702 15.2442C55.3539 14.8736 55.157 14.5334 54.8937 14.2479C54.6304 13.9624 54.3072 13.7387 53.9473 13.5928C53.5874 13.4468 53.1997 13.3823 52.8119 13.4038H51.2369V19.3955Z" fill="white"/>
<path d="M58.3529 17.4213C58.3133 17.007 58.3607 16.589 58.4921 16.1941C58.6234 15.7992 58.8359 15.4362 59.1158 15.1282C59.3957 14.8202 59.7369 14.5741 60.1175 14.4058C60.4981 14.2374 60.9097 14.1504 61.3259 14.1504C61.7421 14.1504 62.1536 14.2374 62.5342 14.4058C62.9148 14.5741 63.256 14.8202 63.5359 15.1282C63.8159 15.4362 64.0283 15.7992 64.1597 16.1941C64.2911 16.589 64.3385 17.007 64.2988 17.4213C64.3392 17.836 64.2924 18.2546 64.1614 18.6501C64.0303 19.0457 63.818 19.4094 63.538 19.718C63.258 20.0266 62.9166 20.2732 62.5356 20.4419C62.1546 20.6107 61.7426 20.6978 61.3259 20.6978C60.9092 20.6978 60.4971 20.6107 60.1162 20.4419C59.7352 20.2732 59.3937 20.0266 59.1138 19.718C58.8338 19.4094 58.6214 19.0457 58.4904 18.6501C58.3594 18.2546 58.3125 17.836 58.3529 17.4213ZM63.0191 17.4213C63.0191 16.0548 62.4053 15.2557 61.3279 15.2557C60.2465 15.2557 59.6381 16.0548 59.6381 17.4213C59.6381 18.7988 60.2465 19.5917 61.3279 19.5917C62.4053 19.5917 63.0191 18.7933 63.0191 17.4213Z" fill="white"/>
<path d="M72.2027 20.5766H70.9121L69.6092 15.9336H69.5108L68.2133 20.5766H66.935L65.1973 14.2725H66.4592L67.5885 19.0829H67.6815L68.9775 14.2725H70.1711L71.4672 19.0829H71.5656L72.6895 14.2725H73.9336L72.2027 20.5766Z" fill="white"/>
<path d="M75.395 14.2724H76.5927V15.2739H76.6856C76.8434 14.9142 77.1094 14.6127 77.4466 14.4113C77.7838 14.21 78.1754 14.1189 78.5669 14.1507C78.8736 14.1277 79.1816 14.1739 79.4681 14.2861C79.7545 14.3982 80.012 14.5733 80.2216 14.7985C80.4312 15.0237 80.5874 15.2931 80.6786 15.5869C80.7699 15.8806 80.7939 16.1912 80.7489 16.4955V20.5765H79.5048V16.8079C79.5048 15.7948 79.0646 15.291 78.1444 15.291C77.9362 15.2813 77.7283 15.3167 77.535 15.3949C77.3417 15.4731 77.1676 15.5921 77.0247 15.7438C76.8817 15.8956 76.7732 16.0764 76.7067 16.274C76.6401 16.4716 76.6171 16.6812 76.6392 16.8885V20.5765H75.395L75.395 14.2724Z" fill="white"/>
<path d="M82.7314 11.8115H83.9756V20.5766H82.7314V11.8115Z" fill="white"/>
<path d="M85.7049 17.4214C85.6653 17.0071 85.7128 16.5891 85.8442 16.1942C85.9756 15.7993 86.1881 15.4362 86.468 15.1282C86.748 14.8202 87.0892 14.5742 87.4698 14.4058C87.8504 14.2374 88.262 14.1504 88.6782 14.1504C89.0944 14.1504 89.5061 14.2374 89.8867 14.4058C90.2673 14.5742 90.6085 14.8202 90.8885 15.1282C91.1684 15.4362 91.3809 15.7993 91.5123 16.1942C91.6437 16.5891 91.6911 17.0071 91.6515 17.4214C91.6919 17.8362 91.645 18.2547 91.5139 18.6503C91.3829 19.0458 91.1705 19.4095 90.8905 19.7181C90.6104 20.0267 90.269 20.2733 89.888 20.442C89.507 20.6107 89.0949 20.6979 88.6782 20.6979C88.2616 20.6979 87.8495 20.6107 87.4685 20.442C87.0875 20.2733 86.746 20.0267 86.466 19.7181C86.186 19.4095 85.9736 19.0458 85.8426 18.6503C85.7115 18.2547 85.6646 17.8362 85.7049 17.4214ZM90.3711 17.4214C90.3711 16.0549 89.7573 15.2558 88.6799 15.2558C87.5985 15.2558 86.9902 16.0549 86.9902 17.4215C86.9902 18.7989 87.5985 19.5919 88.6799 19.5919C89.7573 19.5918 90.3711 18.7934 90.3711 17.4214Z" fill="white"/>
<path d="M92.9614 18.7934C92.9614 17.6586 93.8063 17.0044 95.3061 16.9114L97.0138 16.813V16.2688C97.0138 15.603 96.5735 15.227 95.7231 15.227C95.0286 15.227 94.5474 15.482 94.4093 15.9277H93.2048C93.3319 14.8449 94.3505 14.1504 95.7806 14.1504C97.361 14.1504 98.2524 14.9372 98.2524 16.2688V20.5762H97.0548V19.6902H96.9563C96.7565 20.008 96.476 20.2671 96.1433 20.441C95.8106 20.6149 95.4378 20.6974 95.0628 20.68C94.7981 20.7076 94.5307 20.6793 94.2776 20.5971C94.0245 20.515 93.7915 20.3807 93.5935 20.2029C93.3955 20.0252 93.237 19.8079 93.1281 19.5651C93.0193 19.3223 92.9625 19.0594 92.9614 18.7934ZM97.0138 18.2547V17.7276L95.4743 17.8261C94.6061 17.8842 94.2124 18.1795 94.2124 18.7352C94.2124 19.3026 94.7046 19.6328 95.3814 19.6328C95.5797 19.6529 95.78 19.6328 95.9704 19.5739C96.1608 19.515 96.3374 19.4184 96.4897 19.2898C96.642 19.1612 96.7669 19.0033 96.8569 18.8255C96.947 18.6477 97.0003 18.4535 97.0138 18.2547Z" fill="white"/>
<path d="M99.8877 17.4218C99.8877 15.4298 100.912 14.1679 102.504 14.1679C102.898 14.1497 103.289 14.2441 103.632 14.44C103.974 14.6358 104.254 14.9251 104.438 15.2739H104.531V11.8115H105.775V20.5766H104.583V19.5806H104.484C104.286 19.927 103.997 20.2127 103.648 20.4066C103.299 20.6004 102.903 20.6952 102.505 20.6805C100.901 20.6805 99.8877 19.4186 99.8877 17.4218ZM101.173 17.4218C101.173 18.7589 101.803 19.5635 102.857 19.5635C103.906 19.5635 104.554 18.7473 104.554 17.4273C104.554 16.1134 103.899 15.2856 102.857 15.2856C101.81 15.2856 101.173 16.0956 101.173 17.4218Z" fill="white"/>
<path d="M110.922 17.4213C110.883 17.007 110.93 16.589 111.061 16.1941C111.193 15.7992 111.405 15.4362 111.685 15.1282C111.965 14.8202 112.306 14.5741 112.687 14.4058C113.067 14.2374 113.479 14.1504 113.895 14.1504C114.311 14.1504 114.723 14.2374 115.104 14.4058C115.484 14.5741 115.825 14.8202 116.105 15.1282C116.385 15.4362 116.598 15.7992 116.729 16.1941C116.86 16.589 116.908 17.007 116.868 17.4213C116.909 17.836 116.862 18.2546 116.731 18.6501C116.6 19.0457 116.387 19.4094 116.107 19.718C115.827 20.0266 115.486 20.2732 115.105 20.4419C114.724 20.6107 114.312 20.6978 113.895 20.6978C113.479 20.6978 113.066 20.6107 112.686 20.4419C112.305 20.2732 111.963 20.0266 111.683 19.718C111.403 19.4094 111.191 19.0457 111.06 18.6501C110.929 18.2546 110.882 17.836 110.922 17.4213ZM115.588 17.4213C115.588 16.0548 114.975 15.2557 113.897 15.2557C112.816 15.2557 112.207 16.0548 112.207 17.4213C112.207 18.7988 112.816 19.5917 113.897 19.5917C114.975 19.5917 115.588 18.7933 115.588 17.4213Z" fill="white"/>
<path d="M118.538 14.2724H119.735V15.2739H119.828C119.986 14.9142 120.252 14.6127 120.589 14.4113C120.926 14.21 121.318 14.1189 121.709 14.1507C122.016 14.1277 122.324 14.1739 122.611 14.2861C122.897 14.3982 123.155 14.5733 123.364 14.7985C123.574 15.0237 123.73 15.2931 123.821 15.5869C123.913 15.8806 123.937 16.1912 123.892 16.4955V20.5765H122.647V16.8079C122.647 15.7948 122.207 15.291 121.287 15.291C121.079 15.2813 120.871 15.3167 120.678 15.3949C120.484 15.4731 120.31 15.5921 120.167 15.7438C120.024 15.8956 119.916 16.0764 119.849 16.274C119.783 16.4716 119.76 16.6812 119.782 16.8885V20.5765H118.538V14.2724Z" fill="white"/>
<path d="M130.922 12.7031V14.3014H132.287V15.3493H130.922V18.5909C130.922 19.2513 131.194 19.5404 131.813 19.5404C131.972 19.5399 132.13 19.5303 132.287 19.5117V20.548C132.064 20.588 131.838 20.6093 131.611 20.6116C130.227 20.6116 129.676 20.1249 129.676 18.9095V15.3493H128.675V14.3013H129.676V12.7031H130.922Z" fill="white"/>
<path d="M133.987 11.8115H135.22V15.2856H135.318C135.484 14.9225 135.757 14.6193 136.101 14.4172C136.445 14.2151 136.843 14.124 137.241 14.1563C137.546 14.1397 137.851 14.1906 138.134 14.3055C138.417 14.4203 138.672 14.5963 138.879 14.8207C139.086 15.0452 139.242 15.3127 139.334 15.6041C139.426 15.8955 139.452 16.2036 139.412 16.5065V20.5766H138.166V16.8134C138.166 15.8064 137.697 15.2965 136.818 15.2965C136.604 15.2789 136.389 15.3083 136.188 15.3826C135.987 15.4569 135.804 15.5742 135.653 15.7265C135.502 15.8787 135.386 16.0621 135.313 16.2639C135.24 16.4657 135.212 16.681 135.231 16.8947V20.5765H133.987L133.987 11.8115Z" fill="white"/>
<path d="M146.666 18.8741C146.497 19.4503 146.13 19.9487 145.631 20.2821C145.132 20.6155 144.531 20.7627 143.934 20.6979C143.519 20.7089 143.106 20.6294 142.725 20.4648C142.343 20.3003 142.002 20.0547 141.725 19.7451C141.448 19.4355 141.241 19.0693 141.12 18.672C140.999 18.2746 140.965 17.8556 141.022 17.4441C140.967 17.0312 141.001 16.6113 141.122 16.2128C141.243 15.8142 141.448 15.4464 141.724 15.134C141.999 14.8217 142.339 14.5723 142.719 14.4026C143.1 14.2329 143.512 14.1469 143.929 14.1505C145.683 14.1505 146.741 15.3489 146.741 17.3285V17.7626H142.289V17.8323C142.27 18.0637 142.299 18.2965 142.375 18.516C142.451 18.7354 142.571 18.9366 142.729 19.1067C142.887 19.2767 143.079 19.4118 143.293 19.5034C143.506 19.595 143.736 19.6409 143.968 19.6383C144.266 19.6741 144.567 19.6205 144.834 19.4844C145.102 19.3483 145.322 19.1359 145.468 18.8741L146.666 18.8741ZM142.289 16.8425H145.474C145.489 16.6309 145.46 16.4184 145.389 16.2186C145.318 16.0188 145.205 15.8361 145.059 15.6823C144.913 15.5285 144.736 15.407 144.541 15.3255C144.345 15.2441 144.134 15.2045 143.922 15.2094C143.707 15.2067 143.493 15.2471 143.294 15.3282C143.094 15.4093 142.913 15.5295 142.761 15.6817C142.609 15.8339 142.489 16.015 142.408 16.2144C142.327 16.4138 142.287 16.6273 142.289 16.8425Z" fill="white"/>
</g>
<defs>
<clipPath id="clip0_740_4425">
<rect width="167.53" height="56" fill="white"/>
</clipPath>
</defs>
</svg>
