<svg width="187" height="57" viewBox="0 0 187 57" fill="none" xmlns="http://www.w3.org/2000/svg">
<path d="M179.896 56.1593H6.91909C3.0444 56.1593 0 53.0705 0 49.1394V7.01991C0 3.08876 3.0444 0 6.91909 0H179.896C183.771 0 186.816 3.08876 186.816 7.01991V49.1394C186.816 53.0705 183.771 56.1593 179.896 56.1593Z" fill="black"/>
<path d="M65.6342 14.0511C65.6342 15.2342 65.3565 16.2694 64.6623 17.0088C63.8293 17.8961 62.8575 18.3398 61.608 18.3398C60.3585 18.3398 59.3867 17.8961 58.5537 17.0088C57.7207 16.1215 57.3042 15.0863 57.3042 13.7553C57.3042 12.4244 57.7207 11.3892 58.5537 10.5019C59.3867 9.61455 60.3585 9.1709 61.608 9.1709C62.1633 9.1709 62.7187 9.31878 63.274 9.61455C63.8293 9.91032 64.2458 10.2061 64.5235 10.6497L63.8293 11.3892C63.274 10.6497 62.5798 10.354 61.608 10.354C60.775 10.354 59.942 10.6497 59.3867 11.3892C58.6925 11.9807 58.4149 12.868 58.4149 13.9032C58.4149 14.9384 58.6925 15.8257 59.3867 16.4173C60.0809 17.0088 60.775 17.4524 61.608 17.4524C62.5798 17.4524 63.274 17.1567 63.9682 16.4173C64.3847 15.9736 64.6623 15.3821 64.6623 14.6426H61.608V13.4596H65.6342V14.0511ZM72.0205 10.354H68.272V13.1638H71.7428V14.199H68.272V17.0088H72.0205V18.1919H67.1613V9.31878H72.0205V10.354ZM76.6019 18.1919H75.4913V10.354H73.1311V9.31878H78.9621V10.354H76.6019V18.1919ZM82.9882 18.1919V9.31878H84.0989V18.1919H82.9882ZM88.8192 18.1919H87.7085V10.354H85.3484V9.31878H91.0405V10.354H88.6804V18.1919H88.8192ZM102.008 17.0088C101.175 17.8961 100.203 18.3398 98.954 18.3398C97.7045 18.3398 96.7327 17.8961 95.8997 17.0088C95.0667 16.1215 94.6502 15.0863 94.6502 13.7553C94.6502 12.4244 95.0667 11.3892 95.8997 10.5019C96.7327 9.61455 97.7045 9.1709 98.954 9.1709C100.203 9.1709 101.175 9.61455 102.008 10.5019C102.841 11.3892 103.258 12.4244 103.258 13.7553C103.258 15.0863 102.841 16.1215 102.008 17.0088ZM96.7327 16.2694C97.288 16.8609 98.121 17.3046 98.954 17.3046C99.787 17.3046 100.62 17.0088 101.175 16.2694C101.731 15.6778 102.147 14.7905 102.147 13.7553C102.147 12.7201 101.869 11.8328 101.175 11.2413C100.62 10.6497 99.787 10.2061 98.954 10.2061C98.121 10.2061 97.288 10.5019 96.7327 11.2413C96.1773 11.8328 95.7608 12.7201 95.7608 13.7553C95.7608 14.7905 96.0385 15.6778 96.7327 16.2694ZM104.785 18.1919V9.31878H106.034L110.061 16.2694V9.31878H111.171V18.1919H110.061L105.757 10.9455V18.1919H104.785Z" fill="white"/>
<path d="M93.4682 30.4422C90.1518 30.4422 87.5263 32.8836 87.5263 36.2744C87.5263 39.5297 90.1518 42.1067 93.4682 42.1067C96.7845 42.1067 99.41 39.6653 99.41 36.2744C99.41 32.748 96.7845 30.4422 93.4682 30.4422ZM93.4682 39.6653C91.6718 39.6653 90.1518 38.1733 90.1518 36.1388C90.1518 34.1043 91.6718 32.6123 93.4682 32.6123C95.2645 32.6123 96.7845 33.9687 96.7845 36.1388C96.7845 38.1733 95.2645 39.6653 93.4682 39.6653ZM80.6171 30.4422C77.3007 30.4422 74.6752 32.8836 74.6752 36.2744C74.6752 39.5297 77.3007 42.1067 80.6171 42.1067C83.9335 42.1067 86.559 39.6653 86.559 36.2744C86.559 32.748 83.9335 30.4422 80.6171 30.4422ZM80.6171 39.6653C78.8207 39.6653 77.3007 38.1733 77.3007 36.1388C77.3007 34.1043 78.8207 32.6123 80.6171 32.6123C82.4135 32.6123 83.9335 33.9687 83.9335 36.1388C83.9335 38.1733 82.4135 39.6653 80.6171 39.6653ZM65.2788 32.2054V34.6468H71.2207C71.0825 36.0032 70.5297 37.0883 69.8388 37.7664C69.0097 38.5802 67.6279 39.5297 65.2788 39.5297C61.5478 39.5297 58.7842 36.6813 58.7842 33.0192C58.7842 29.3571 61.686 26.5088 65.2788 26.5088C67.2133 26.5088 68.7334 27.3226 69.8388 28.272L71.6352 26.5088C70.1152 25.1525 68.1806 24.0674 65.417 24.0674C60.4424 24.0674 56.1587 28.1364 56.1587 33.0192C56.1587 37.9021 60.4424 41.9711 65.417 41.9711C68.1806 41.9711 70.1152 41.1573 71.7734 39.394C73.4316 37.7664 73.9843 35.4606 73.9843 33.6974C73.9843 33.1549 73.9843 32.6123 73.8461 32.2054H65.2788ZM128.014 34.1043C127.461 32.748 126.079 30.4422 123.039 30.4422C119.999 30.4422 117.512 32.748 117.512 36.2744C117.512 39.5297 119.999 42.1067 123.316 42.1067C125.941 42.1067 127.599 40.4791 128.152 39.5297L126.218 38.1733C125.527 39.1228 124.698 39.8009 123.316 39.8009C121.934 39.8009 121.105 39.2584 120.414 38.0377L128.29 34.7825L128.014 34.1043ZM119.999 36.0032C119.999 33.833 121.796 32.6123 123.039 32.6123C124.007 32.6123 124.974 33.1549 125.25 33.833L119.999 36.0032ZM113.505 41.5642H116.13V24.6099H113.505V41.5642ZM109.359 31.6629C108.668 30.9847 107.563 30.3065 106.181 30.3065C103.279 30.3065 100.515 32.8836 100.515 36.1388C100.515 39.394 103.141 41.8354 106.181 41.8354C107.563 41.8354 108.668 41.1573 109.221 40.4791H109.359V41.2929C109.359 43.463 108.116 44.6838 106.181 44.6838C104.661 44.6838 103.556 43.5987 103.279 42.6492L101.068 43.5987C101.759 45.0907 103.417 46.9895 106.319 46.9895C109.359 46.9895 111.847 45.2263 111.847 41.0216V30.7134H109.359V31.6629ZM106.319 39.6653C104.523 39.6653 103.003 38.1733 103.003 36.1388C103.003 34.1043 104.523 32.6123 106.319 32.6123C108.116 32.6123 109.497 34.1043 109.497 36.1388C109.497 38.1733 108.116 39.6653 106.319 39.6653ZM140.036 24.6099H133.818V41.5642H136.443V35.1894H140.036C142.938 35.1894 145.701 33.1549 145.701 29.8996C145.701 26.6444 142.938 24.6099 140.036 24.6099ZM140.174 32.748H136.443V26.9157H140.174C142.109 26.9157 143.214 28.5433 143.214 29.764C143.076 31.256 141.97 32.748 140.174 32.748ZM156.065 30.3065C154.131 30.3065 152.196 31.1204 151.505 32.8836L153.854 33.833C154.407 32.8836 155.236 32.6123 156.203 32.6123C157.585 32.6123 158.829 33.4261 158.967 34.7825V34.9181C158.552 34.6468 157.447 34.2399 156.341 34.2399C153.854 34.2399 151.367 35.5963 151.367 38.0377C151.367 40.3435 153.44 41.8354 155.651 41.8354C157.447 41.8354 158.276 41.0216 158.967 40.2078H159.105V41.5642H161.592V35.0537C161.316 32.0698 158.967 30.3065 156.065 30.3065ZM155.789 39.6653C154.96 39.6653 153.716 39.2584 153.716 38.1733C153.716 36.817 155.236 36.4101 156.48 36.4101C157.585 36.4101 158.138 36.6813 158.829 36.9526C158.552 38.5802 157.171 39.6653 155.789 39.6653ZM170.298 30.7134L167.396 38.0377H167.258L164.218 30.7134H161.454L166.014 41.0216L163.389 46.7183H166.014L173.062 30.7134H170.298ZM147.083 41.5642H149.709V24.6099H147.083V41.5642Z" fill="white"/>
<path d="M14.3874 10.8301C13.9723 11.2451 13.834 11.9368 13.834 12.7669V43.3412C13.834 44.1712 14.1107 44.863 14.5257 45.278L14.6641 45.4163L31.8188 28.2616V27.9849L14.3874 10.8301Z" fill="url(#paint0_linear_740_3393)"/>
<path d="M37.3533 34.0728L31.6812 28.4007V27.9856L37.3533 22.3135L37.4916 22.4518L44.2706 26.3255C46.2074 27.4322 46.2074 29.2307 44.2706 30.3375L37.3533 34.0728Z" fill="url(#paint1_linear_740_3393)"/>
<path d="M37.4903 33.9335L31.6799 28.123L14.3867 45.4162C15.0784 46.1079 16.0469 46.1079 17.292 45.5545L37.4903 33.9335Z" fill="url(#paint2_linear_740_3393)"/>
<path d="M37.4903 22.3153L17.292 10.8327C16.0469 10.141 15.0784 10.2793 14.3867 10.971L31.6799 28.1258L37.4903 22.3153Z" fill="url(#paint3_linear_740_3393)"/>
<path opacity="0.2" d="M37.352 33.7998L17.292 45.1441C16.1852 45.8358 15.2168 45.6975 14.5251 45.1441L14.3867 45.2824L14.5251 45.4208C15.2168 45.9742 16.1852 46.1125 17.292 45.4208L37.352 33.7998Z" fill="black"/>
<path opacity="0.12" d="M14.3874 45.1395C13.9723 44.7245 13.834 44.0327 13.834 43.2027V43.341C13.834 44.1711 14.1107 44.8628 14.5257 45.2778V45.1395H14.3874ZM44.2699 29.9215L37.3526 33.7952L37.491 33.9335L44.2699 30.0599C45.2383 29.5065 45.6533 28.8148 45.6533 28.123C45.6533 28.8148 45.1 29.3682 44.2699 29.9215Z" fill="black"/>
<path opacity="0.25" d="M17.2926 10.9692L44.2699 26.3255C45.1 26.8789 45.6533 27.4323 45.6533 28.124C45.6533 27.4323 45.2383 26.7405 44.2699 26.1872L17.2926 10.8309C15.3558 9.72411 13.834 10.5542 13.834 12.7677V12.906C13.834 10.8309 15.3558 9.86245 17.2926 10.9692Z" fill="white"/>
<defs>
<linearGradient id="paint0_linear_740_3393" x1="30.1587" y1="12.5041" x2="6.94025" y2="35.7211" gradientUnits="userSpaceOnUse">
<stop stop-color="#00A0FF"/>
<stop offset="0.007" stop-color="#00A1FF"/>
<stop offset="0.26" stop-color="#00BEFF"/>
<stop offset="0.512" stop-color="#00D2FF"/>
<stop offset="0.76" stop-color="#00DFFF"/>
<stop offset="1" stop-color="#00E3FF"/>
</linearGradient>
<linearGradient id="paint1_linear_740_3393" x1="46.8078" y1="28.1254" x2="13.3324" y2="28.1254" gradientUnits="userSpaceOnUse">
<stop stop-color="#FFE000"/>
<stop offset="0.409" stop-color="#FFBD00"/>
<stop offset="0.775" stop-color="#FFA500"/>
<stop offset="1" stop-color="#FF9C00"/>
</linearGradient>
<linearGradient id="paint2_linear_740_3393" x1="34.3458" y1="31.2994" x2="2.8612" y2="62.784" gradientUnits="userSpaceOnUse">
<stop stop-color="#FF3A44"/>
<stop offset="1" stop-color="#C31162"/>
</linearGradient>
<linearGradient id="paint3_linear_740_3393" x1="10.0939" y1="0.700314" x2="24.1539" y2="14.7603" gradientUnits="userSpaceOnUse">
<stop stop-color="#32A071"/>
<stop offset="0.069" stop-color="#2DA771"/>
<stop offset="0.476" stop-color="#15CF74"/>
<stop offset="0.801" stop-color="#06E775"/>
<stop offset="1" stop-color="#00F076"/>
</linearGradient>
</defs>
</svg>
